<svg width="30" height="30" viewBox="0 0 30 30" fill="none" xmlns="http://www.w3.org/2000/svg">
<rect width="30" height="30" rx="5" fill="#1E6DFF"/>
<path d="M15 25C14.0628 25 13.303 24.2402 13.303 23.303V6.69697C13.303 5.75976 14.0628 5 15 5C15.9372 5 16.697 5.75976 16.697 6.69697V23.303C16.697 24.2402 15.9372 25 15 25ZM6.69697 16.697C5.75976 16.697 5 15.9372 5 15C5 14.0628 5.75976 13.303 6.69697 13.303H23.303C24.2402 13.303 25 14.0628 25 15C25 15.9372 24.2402 16.697 23.303 16.697H6.69697Z" fill="white"/>
</svg>
