<svg width="49" height="49" viewBox="0 0 49 49" fill="none" xmlns="http://www.w3.org/2000/svg">
<rect x="0.800903" y="0.796211" width="47.9147" height="47.9147" rx="7.98578" fill="#1E6DFF"/>
<path d="M13.2022 37.5251C12.8059 37.5244 12.428 37.3574 12.1608 37.0644C11.8887 36.7741 11.7535 36.3812 11.7892 35.9849L12.1354 32.1781L28.1284 16.1908L33.1264 21.1874L17.1376 37.1732L13.3308 37.5194C13.287 37.5237 13.2432 37.5251 13.2022 37.5251ZM34.124 20.1883L29.1274 15.1918L32.1245 12.1947C32.3896 11.9293 32.7492 11.7802 33.1242 11.7802C33.4993 11.7802 33.8589 11.9293 34.124 12.1947L37.1211 15.1918C37.3864 15.4568 37.5355 15.8165 37.5355 16.1915C37.5355 16.5666 37.3864 16.9262 37.1211 17.1912L34.1254 20.1869L34.124 20.1883Z" fill="white"/>
</svg>
